<svg id="svg" version="1.1" width="400" height="400" viewBox="0 0 400 400" xmlns="http://www.w3.org/2000/svg" xmlns:xlink="http://www.w3.org/1999/xlink" ><g id="svgg"><path id="path0" d="M172.400 2.200 L 172.400 4.400 169.089 4.400 C 164.751 4.400,164.400 4.760,164.400 9.205 L 164.400 12.400 161.033 12.400 C 156.211 12.400,156.400 12.227,156.400 16.643 L 156.400 20.400 153.089 20.400 C 148.751 20.400,148.400 20.760,148.400 25.205 L 148.400 28.400 145.089 28.400 C 139.986 28.400,140.400 26.602,140.400 48.762 C 140.400 64.301,140.494 67.551,140.950 67.725 C 141.252 67.841,141.620 68.737,141.766 69.715 C 142.141 72.215,143.733 73.881,146.341 74.500 C 147.475 74.770,148.400 75.216,148.400 75.495 C 148.400 75.773,148.580 76.000,148.800 76.000 C 149.020 76.000,149.214 76.765,149.230 77.700 C 149.283 80.645,150.055 82.147,151.733 82.571 C 152.540 82.774,153.200 83.089,153.200 83.271 C 153.200 83.452,153.843 83.600,154.629 83.600 C 156.475 83.600,157.200 84.365,157.200 86.312 C 157.200 88.663,157.897 90.287,159.026 90.571 C 159.562 90.705,160.000 90.992,160.000 91.208 C 160.000 91.423,160.855 91.606,161.900 91.613 C 164.407 91.630,165.200 92.271,165.200 94.284 C 165.200 96.661,165.892 98.286,167.026 98.571 C 167.562 98.705,168.000 98.992,168.000 99.208 C 168.000 99.423,168.765 99.602,169.700 99.605 C 172.819 99.615,173.195 99.864,173.240 101.947 C 173.299 104.707,173.705 105.722,175.017 106.394 C 175.667 106.727,176.260 107.135,176.333 107.300 C 176.407 107.465,177.247 107.600,178.201 107.600 C 180.832 107.600,181.196 107.857,181.230 109.743 C 181.284 112.647,182.062 114.149,183.733 114.571 C 184.540 114.774,185.200 115.089,185.200 115.271 C 185.200 115.452,185.815 115.600,186.567 115.600 C 188.807 115.600,189.197 115.913,189.230 117.743 C 189.284 120.647,190.062 122.149,191.733 122.571 C 192.540 122.774,193.200 123.089,193.200 123.271 C 193.200 123.452,193.815 123.600,194.567 123.600 C 196.807 123.600,197.197 123.913,197.230 125.743 C 197.284 128.647,198.062 130.149,199.733 130.571 C 200.540 130.774,201.200 131.089,201.200 131.271 C 201.200 131.452,201.815 131.600,202.567 131.600 C 204.807 131.600,205.197 131.913,205.230 133.743 C 205.284 136.647,206.062 138.149,207.733 138.571 C 208.540 138.774,209.200 139.089,209.200 139.271 C 209.200 139.452,209.815 139.600,210.567 139.600 C 212.807 139.600,213.197 139.913,213.230 141.743 C 213.282 144.547,214.073 146.135,215.634 146.570 C 216.385 146.780,217.109 147.111,217.243 147.307 C 217.376 147.502,219.986 147.783,223.043 147.931 C 226.099 148.079,180.825 148.290,122.433 148.400 C 37.998 148.559,16.233 148.702,16.100 149.100 C 16.008 149.375,15.610 149.600,15.216 149.600 C 14.092 149.600,13.568 150.553,13.308 153.067 C 12.994 156.112,12.644 156.400,9.261 156.400 C 6.113 156.400,5.200 156.634,5.200 157.443 C 5.200 157.749,5.020 158.000,4.800 158.000 C 4.567 158.000,4.400 159.333,4.400 161.200 L 4.400 164.400 2.200 164.400 L 0.000 164.400 0.000 198.980 L 0.000 233.560 2.300 233.704 L 4.600 233.849 2.300 233.924 C -1.190 234.039,-1.285 236.000,2.200 236.000 L 4.400 236.000 4.400 239.200 C 4.400 241.067,4.567 242.400,4.800 242.400 C 5.020 242.400,5.200 242.651,5.200 242.957 C 5.200 243.774,6.116 244.000,9.433 244.000 L 12.400 244.000 12.400 245.400 C 12.400 246.170,12.580 246.800,12.800 246.800 C 13.020 246.800,13.200 247.352,13.200 248.026 C 13.200 249.523,13.836 250.800,14.581 250.800 C 14.885 250.800,15.208 251.025,15.300 251.300 C 15.433 251.698,37.280 251.842,122.033 252.003 C 180.645 252.115,227.040 252.250,225.133 252.303 C 221.074 252.417,220.400 252.611,220.400 253.671 C 220.400 254.620,219.859 255.160,217.905 256.157 C 216.812 256.715,216.248 257.371,215.757 258.657 C 215.154 260.237,214.965 260.400,213.746 260.400 C 212.567 260.400,212.400 260.528,212.400 261.429 C 212.400 262.621,211.950 263.113,209.905 264.157 C 208.812 264.715,208.248 265.371,207.757 266.657 C 207.154 268.237,206.965 268.400,205.746 268.400 C 204.824 268.400,204.400 268.587,204.400 268.992 C 204.400 269.318,203.905 269.695,203.300 269.830 C 200.997 270.342,200.585 270.545,199.504 271.703 C 198.892 272.358,198.287 273.367,198.159 273.947 C 197.685 276.087,197.534 276.400,196.973 276.400 C 196.658 276.400,196.400 276.627,196.400 276.905 C 196.400 277.184,195.475 277.630,194.341 277.900 C 191.747 278.516,190.141 280.187,189.771 282.654 C 189.607 283.750,189.303 284.400,188.955 284.400 C 188.650 284.400,188.400 284.627,188.400 284.905 C 188.400 285.184,187.475 285.630,186.341 285.900 C 183.747 286.516,182.141 288.187,181.771 290.654 C 181.603 291.771,181.305 292.400,180.942 292.400 C 180.630 292.400,180.280 292.648,180.163 292.952 C 180.047 293.255,179.106 293.615,178.074 293.752 C 175.669 294.071,174.136 295.596,173.751 298.051 C 173.407 300.248,172.198 301.420,169.922 301.761 C 167.580 302.112,166.080 303.705,165.738 306.203 C 165.541 307.638,165.263 308.171,164.541 308.500 C 164.023 308.736,163.600 309.080,163.600 309.264 C 163.600 309.449,163.154 309.600,162.608 309.600 C 159.614 309.600,157.600 311.571,157.600 314.500 C 157.600 315.073,157.330 315.813,157.000 316.143 C 156.670 316.473,156.400 316.893,156.400 317.077 C 156.400 317.260,155.473 317.631,154.341 317.900 C 151.747 318.516,150.141 320.187,149.771 322.654 C 149.607 323.750,149.303 324.400,148.955 324.400 C 148.626 324.400,148.400 324.818,148.400 325.429 C 148.400 326.621,147.950 327.113,145.905 328.157 C 144.812 328.715,144.248 329.371,143.757 330.657 C 143.315 331.813,142.851 332.400,142.378 332.400 C 140.300 332.400,140.400 331.431,140.400 351.638 C 140.400 373.798,139.986 372.000,145.089 372.000 L 148.400 372.000 148.400 375.757 C 148.400 380.173,148.211 380.000,153.033 380.000 L 156.400 380.000 156.400 383.757 C 156.400 388.173,156.211 388.000,161.033 388.000 L 164.400 388.000 164.400 391.757 C 164.400 396.173,164.211 396.000,169.033 396.000 L 172.400 396.000 172.400 398.000 L 172.400 400.000 196.200 400.000 L 220.000 400.000 220.000 398.040 L 220.000 396.080 223.567 395.940 C 227.923 395.769,227.769 395.922,227.938 391.606 L 228.077 388.077 231.606 387.938 C 235.919 387.769,235.769 387.919,235.938 383.606 L 236.077 380.077 239.606 379.938 C 243.919 379.769,243.769 379.919,243.938 375.606 L 244.077 372.077 247.606 371.938 C 251.919 371.769,251.769 371.919,251.938 367.606 L 252.077 364.077 255.606 363.938 C 259.919 363.769,259.769 363.919,259.938 359.606 L 260.077 356.077 263.606 355.938 C 267.919 355.769,267.769 355.919,267.938 351.606 L 268.077 348.077 271.606 347.938 C 275.919 347.769,275.769 347.919,275.938 343.606 L 276.077 340.077 279.606 339.938 C 283.919 339.769,283.769 339.919,283.938 335.606 L 284.077 332.077 287.606 331.938 C 291.919 331.769,291.769 331.919,291.938 327.606 L 292.077 324.077 295.606 323.938 C 299.919 323.769,299.769 323.919,299.938 319.606 L 300.077 316.077 303.606 315.938 C 307.919 315.769,307.769 315.919,307.938 311.606 L 308.077 308.077 311.606 307.938 C 315.919 307.769,315.769 307.919,315.938 303.606 L 316.077 300.077 319.606 299.938 C 323.919 299.769,323.769 299.919,323.938 295.606 L 324.077 292.077 327.606 291.938 C 331.919 291.769,331.769 291.919,331.938 287.606 L 332.077 284.077 335.606 283.938 C 339.919 283.769,339.769 283.919,339.938 279.606 L 340.077 276.077 343.606 275.938 C 347.919 275.769,347.769 275.919,347.938 271.606 L 348.077 268.077 351.606 267.938 C 355.919 267.769,355.769 267.919,355.938 263.606 L 356.077 260.077 359.606 259.938 C 363.919 259.769,363.769 259.919,363.938 255.606 L 364.077 252.077 367.606 251.938 C 371.919 251.769,371.769 251.919,371.938 247.606 L 372.077 244.077 375.606 243.938 C 379.919 243.769,379.769 243.919,379.938 239.606 L 380.077 236.077 383.606 235.938 C 387.919 235.769,387.769 235.919,387.938 231.606 L 388.077 228.077 391.606 227.938 C 395.922 227.769,395.769 227.923,395.940 223.567 L 396.080 220.000 398.040 220.000 L 400.000 220.000 400.000 200.200 L 400.000 180.400 398.000 180.400 L 396.000 180.400 396.000 177.619 C 396.000 172.938,395.472 172.415,390.740 172.405 L 388.080 172.400 387.940 168.833 C 387.769 164.477,387.922 164.631,383.606 164.462 L 380.077 164.323 379.938 160.794 C 379.769 156.478,379.923 156.631,375.567 156.460 L 372.000 156.320 372.000 153.579 C 372.000 148.933,371.469 148.415,366.700 148.405 L 364.000 148.400 364.000 145.619 C 364.000 140.930,363.477 140.415,358.700 140.405 L 356.000 140.400 356.000 137.619 C 356.000 132.930,355.477 132.415,350.700 132.405 L 348.000 132.400 348.000 129.619 C 348.000 124.930,347.477 124.415,342.700 124.405 L 340.000 124.400 340.000 121.619 C 340.000 116.930,339.477 116.415,334.700 116.405 L 332.000 116.400 332.000 113.619 C 332.000 108.930,331.477 108.415,326.700 108.405 L 324.000 108.400 324.000 105.619 C 324.000 100.938,323.472 100.415,318.740 100.405 L 316.080 100.400 315.940 96.833 C 315.769 92.477,315.922 92.631,311.606 92.462 L 308.077 92.323 307.938 88.794 C 307.769 84.478,307.923 84.631,303.567 84.460 L 300.000 84.320 300.000 81.579 C 300.000 76.933,299.469 76.415,294.700 76.405 L 292.000 76.400 292.000 73.619 C 292.000 68.930,291.477 68.415,286.700 68.405 L 284.000 68.400 284.000 65.619 C 284.000 60.930,283.477 60.415,278.700 60.405 L 276.000 60.400 276.000 57.619 C 276.000 52.930,275.477 52.415,270.700 52.405 L 268.000 52.400 268.000 49.619 C 268.000 44.930,267.477 44.415,262.700 44.405 L 260.000 44.400 260.000 41.619 C 260.000 36.930,259.477 36.415,254.700 36.405 L 252.000 36.400 252.000 33.619 C 252.000 28.938,251.472 28.415,246.740 28.405 L 244.080 28.400 243.940 24.833 C 243.769 20.477,243.922 20.631,239.606 20.462 L 236.077 20.323 235.938 16.794 C 235.769 12.478,235.923 12.631,231.567 12.460 L 228.000 12.320 228.000 9.579 C 228.000 4.933,227.469 4.415,222.700 4.405 L 220.000 4.400 220.000 2.200 L 220.000 0.000 218.220 0.000 L 216.440 0.000 216.296 2.300 L 216.151 4.600 216.076 2.300 L 216.000 0.000 194.200 0.000 L 172.400 0.000 172.400 2.200 M148.946 68.530 C 149.246 68.749,149.196 68.806,148.800 68.699 C 148.470 68.610,148.167 68.101,148.126 67.569 C 148.068 66.805,148.099 66.769,148.272 67.400 C 148.393 67.840,148.697 68.349,148.946 68.530 M147.776 69.914 L 148.552 70.952 147.514 70.176 C 146.215 69.205,145.183 67.730,146.291 68.429 C 146.681 68.675,147.349 69.344,147.776 69.914 M150.394 73.300 C 150.397 73.465,150.220 73.600,150.000 73.600 C 149.780 73.600,149.603 73.195,149.606 72.700 C 149.612 71.841,150.376 72.423,150.394 73.300 M203.200 126.375 C 203.665 126.821,203.580 126.814,202.822 126.341 C 202.284 126.006,201.768 125.477,201.676 125.166 C 201.541 124.710,201.615 124.717,202.054 125.200 C 202.354 125.530,202.870 126.059,203.200 126.375 M211.200 134.375 C 211.665 134.821,211.580 134.814,210.822 134.341 C 210.284 134.006,209.768 133.477,209.676 133.166 C 209.541 132.710,209.615 132.717,210.054 133.200 C 210.354 133.530,210.870 134.059,211.200 134.375 M219.200 142.375 C 219.665 142.821,219.580 142.814,218.822 142.341 C 218.284 142.006,217.768 141.477,217.676 141.166 C 217.541 140.710,217.615 140.717,218.054 141.200 C 218.354 141.530,218.870 142.059,219.200 142.375 M170.900 150.700 C 147.305 150.757,108.695 150.757,85.100 150.700 C 61.505 150.643,80.810 150.596,128.000 150.596 C 175.190 150.596,194.495 150.643,170.900 150.700 M20.237 155.448 C 20.046 155.947,20.174 156.048,20.795 155.886 C 21.238 155.770,21.502 155.835,21.381 156.031 C 21.260 156.227,20.741 156.353,20.229 156.311 C 19.439 156.245,19.365 156.125,19.745 155.517 C 20.302 154.624,20.567 154.587,20.237 155.448 M227.600 244.000 C 228.085 244.314,228.028 244.389,227.300 244.394 C 226.805 244.397,226.400 244.220,226.400 244.000 C 226.400 243.499,226.824 243.499,227.600 244.000 M195.719 282.562 C 195.323 283.091,194.640 283.750,194.200 284.026 C 193.223 284.640,194.008 283.523,195.400 282.319 C 196.491 281.375,196.564 281.430,195.719 282.562 M196.855 283.880 C 196.398 284.062,196.397 284.151,196.850 284.431 C 197.232 284.667,197.134 284.745,196.515 284.699 C 195.849 284.649,195.743 284.510,196.069 284.116 C 196.305 283.832,196.701 283.614,196.949 283.632 C 197.197 283.649,197.155 283.761,196.855 283.880 M187.719 290.562 C 187.323 291.091,186.640 291.750,186.200 292.026 C 185.223 292.640,186.008 291.523,187.400 290.319 C 188.491 289.375,188.564 289.430,187.719 290.562 M155.719 322.562 C 155.323 323.091,154.640 323.750,154.200 324.026 C 153.223 324.640,154.008 323.523,155.400 322.319 C 156.491 321.375,156.564 321.430,155.719 322.562 M232.400 383.029 C 232.400 383.154,232.130 383.527,231.800 383.857 C 231.149 384.508,231.067 384.411,231.443 383.433 C 231.671 382.838,232.400 382.530,232.400 383.029 M165.513 387.609 C 165.981 388.359,165.959 388.381,165.209 387.913 C 164.764 387.635,164.400 387.271,164.400 387.104 C 164.400 386.526,165.009 386.803,165.513 387.609 M168.226 393.507 C 168.078 393.656,167.789 393.512,167.584 393.188 C 166.987 392.243,167.144 391.887,167.848 392.590 C 168.204 392.947,168.374 393.359,168.226 393.507 " stroke="none" fill="#5cbccc" fill-rule="evenodd"></path><path id="path1" d="M216.124 2.200 C 216.126 3.520,216.201 4.012,216.290 3.293 C 216.379 2.574,216.377 1.494,216.286 0.893 C 216.195 0.292,216.122 0.880,216.124 2.200 M148.126 67.569 C 148.167 68.101,148.470 68.610,148.800 68.699 C 149.196 68.806,149.246 68.749,148.946 68.530 C 148.697 68.349,148.393 67.840,148.272 67.400 C 148.099 66.769,148.068 66.805,148.126 67.569 M146.029 68.691 C 146.275 69.081,146.944 69.749,147.514 70.176 L 148.552 70.952 147.776 69.914 C 146.805 68.615,145.330 67.583,146.029 68.691 M149.606 72.700 C 149.603 73.195,149.780 73.600,150.000 73.600 C 150.501 73.600,150.501 73.176,150.000 72.400 C 149.686 71.915,149.611 71.972,149.606 72.700 M201.676 125.166 C 201.768 125.477,202.284 126.006,202.822 126.341 C 203.580 126.814,203.665 126.821,203.200 126.375 C 202.870 126.059,202.354 125.530,202.054 125.200 C 201.615 124.717,201.541 124.710,201.676 125.166 M209.676 133.166 C 209.768 133.477,210.284 134.006,210.822 134.341 C 211.580 134.814,211.665 134.821,211.200 134.375 C 210.870 134.059,210.354 133.530,210.054 133.200 C 209.615 132.717,209.541 132.710,209.676 133.166 M217.676 141.166 C 217.768 141.477,218.284 142.006,218.822 142.341 C 219.580 142.814,219.665 142.821,219.200 142.375 C 218.870 142.059,218.354 141.530,218.054 141.200 C 217.615 140.717,217.541 140.710,217.676 141.166 M85.100 150.700 C 108.695 150.757,147.305 150.757,170.900 150.700 C 194.495 150.643,175.190 150.596,128.000 150.596 C 80.810 150.596,61.505 150.643,85.100 150.700 M19.745 155.517 C 19.365 156.125,19.439 156.245,20.229 156.311 C 20.741 156.353,21.260 156.227,21.381 156.031 C 21.502 155.835,21.238 155.770,20.795 155.886 C 20.174 156.048,20.046 155.947,20.237 155.448 C 20.567 154.587,20.302 154.624,19.745 155.517 M1.107 233.890 C 1.826 233.979,2.906 233.977,3.507 233.886 C 4.108 233.795,3.520 233.722,2.200 233.724 C 0.880 233.726,0.388 233.801,1.107 233.890 M226.400 244.000 C 226.400 244.220,226.805 244.397,227.300 244.394 C 228.028 244.389,228.085 244.314,227.600 244.000 C 226.824 243.499,226.400 243.499,226.400 244.000 M195.400 282.319 C 194.008 283.523,193.223 284.640,194.200 284.026 C 194.885 283.595,196.660 281.575,196.319 281.613 C 196.253 281.621,195.840 281.938,195.400 282.319 M196.069 284.116 C 195.743 284.510,195.849 284.649,196.515 284.699 C 197.134 284.745,197.232 284.667,196.850 284.431 C 196.397 284.151,196.398 284.062,196.855 283.880 C 197.155 283.761,197.197 283.649,196.949 283.632 C 196.701 283.614,196.305 283.832,196.069 284.116 M187.400 290.319 C 186.008 291.523,185.223 292.640,186.200 292.026 C 186.885 291.595,188.660 289.575,188.319 289.613 C 188.253 289.621,187.840 289.938,187.400 290.319 M155.400 322.319 C 154.008 323.523,153.223 324.640,154.200 324.026 C 154.885 323.595,156.660 321.575,156.319 321.613 C 156.253 321.621,155.840 321.938,155.400 322.319 M231.443 383.433 C 231.067 384.411,231.149 384.508,231.800 383.857 C 232.480 383.177,232.567 382.800,232.043 382.800 C 231.846 382.800,231.576 383.085,231.443 383.433 M164.400 387.104 C 164.400 387.271,164.764 387.635,165.209 387.913 C 165.959 388.381,165.981 388.359,165.513 387.609 C 165.009 386.803,164.400 386.526,164.400 387.104 M167.206 392.271 C 167.218 392.884,167.955 393.778,168.226 393.507 C 168.374 393.359,168.204 392.947,167.848 392.590 C 167.491 392.234,167.203 392.091,167.206 392.271 " stroke="none" fill="#60bccc" fill-rule="evenodd"></path><path id="path2" d="M216.124 2.200 C 216.126 3.520,216.201 4.012,216.290 3.293 C 216.379 2.574,216.377 1.494,216.286 0.893 C 216.195 0.292,216.122 0.880,216.124 2.200 M148.126 67.569 C 148.167 68.101,148.470 68.610,148.800 68.699 C 149.196 68.806,149.246 68.749,148.946 68.530 C 148.697 68.349,148.393 67.840,148.272 67.400 C 148.099 66.769,148.068 66.805,148.126 67.569 M146.029 68.691 C 146.275 69.081,146.944 69.749,147.514 70.176 L 148.552 70.952 147.776 69.914 C 146.805 68.615,145.330 67.583,146.029 68.691 M149.606 72.700 C 149.603 73.195,149.780 73.600,150.000 73.600 C 150.501 73.600,150.501 73.176,150.000 72.400 C 149.686 71.915,149.611 71.972,149.606 72.700 M201.676 125.166 C 201.768 125.477,202.284 126.006,202.822 126.341 C 203.580 126.814,203.665 126.821,203.200 126.375 C 202.870 126.059,202.354 125.530,202.054 125.200 C 201.615 124.717,201.541 124.710,201.676 125.166 M209.676 133.166 C 209.768 133.477,210.284 134.006,210.822 134.341 C 211.580 134.814,211.665 134.821,211.200 134.375 C 210.870 134.059,210.354 133.530,210.054 133.200 C 209.615 132.717,209.541 132.710,209.676 133.166 M217.676 141.166 C 217.768 141.477,218.284 142.006,218.822 142.341 C 219.580 142.814,219.665 142.821,219.200 142.375 C 218.870 142.059,218.354 141.530,218.054 141.200 C 217.615 140.717,217.541 140.710,217.676 141.166 M85.100 150.700 C 108.695 150.757,147.305 150.757,170.900 150.700 C 194.495 150.643,175.190 150.596,128.000 150.596 C 80.810 150.596,61.505 150.643,85.100 150.700 M19.745 155.517 C 19.365 156.125,19.439 156.245,20.229 156.311 C 20.741 156.353,21.260 156.227,21.381 156.031 C 21.502 155.835,21.238 155.770,20.795 155.886 C 20.174 156.048,20.046 155.947,20.237 155.448 C 20.567 154.587,20.302 154.624,19.745 155.517 M1.107 233.890 C 1.826 233.979,2.906 233.977,3.507 233.886 C 4.108 233.795,3.520 233.722,2.200 233.724 C 0.880 233.726,0.388 233.801,1.107 233.890 M226.400 244.000 C 226.400 244.220,226.805 244.397,227.300 244.394 C 228.028 244.389,228.085 244.314,227.600 244.000 C 226.824 243.499,226.400 243.499,226.400 244.000 M195.400 282.319 C 194.008 283.523,193.223 284.640,194.200 284.026 C 194.885 283.595,196.660 281.575,196.319 281.613 C 196.253 281.621,195.840 281.938,195.400 282.319 M196.069 284.116 C 195.743 284.510,195.849 284.649,196.515 284.699 C 197.134 284.745,197.232 284.667,196.850 284.431 C 196.397 284.151,196.398 284.062,196.855 283.880 C 197.155 283.761,197.197 283.649,196.949 283.632 C 196.701 283.614,196.305 283.832,196.069 284.116 M187.400 290.319 C 186.008 291.523,185.223 292.640,186.200 292.026 C 186.885 291.595,188.660 289.575,188.319 289.613 C 188.253 289.621,187.840 289.938,187.400 290.319 M155.400 322.319 C 154.008 323.523,153.223 324.640,154.200 324.026 C 154.885 323.595,156.660 321.575,156.319 321.613 C 156.253 321.621,155.840 321.938,155.400 322.319 M231.443 383.433 C 231.067 384.411,231.149 384.508,231.800 383.857 C 232.480 383.177,232.567 382.800,232.043 382.800 C 231.846 382.800,231.576 383.085,231.443 383.433 M164.400 387.104 C 164.400 387.271,164.764 387.635,165.209 387.913 C 165.959 388.381,165.981 388.359,165.513 387.609 C 165.009 386.803,164.400 386.526,164.400 387.104 M167.206 392.271 C 167.218 392.884,167.955 393.778,168.226 393.507 C 168.374 393.359,168.204 392.947,167.848 392.590 C 167.491 392.234,167.203 392.091,167.206 392.271 " stroke="none" fill="#60bccc" fill-rule="evenodd"></path><path id="path3" d="M216.124 2.200 C 216.126 3.520,216.201 4.012,216.290 3.293 C 216.379 2.574,216.377 1.494,216.286 0.893 C 216.195 0.292,216.122 0.880,216.124 2.200 M148.126 67.569 C 148.167 68.101,148.470 68.610,148.800 68.699 C 149.196 68.806,149.246 68.749,148.946 68.530 C 148.697 68.349,148.393 67.840,148.272 67.400 C 148.099 66.769,148.068 66.805,148.126 67.569 M146.029 68.691 C 146.275 69.081,146.944 69.749,147.514 70.176 L 148.552 70.952 147.776 69.914 C 146.805 68.615,145.330 67.583,146.029 68.691 M149.606 72.700 C 149.603 73.195,149.780 73.600,150.000 73.600 C 150.501 73.600,150.501 73.176,150.000 72.400 C 149.686 71.915,149.611 71.972,149.606 72.700 M201.676 125.166 C 201.768 125.477,202.284 126.006,202.822 126.341 C 203.580 126.814,203.665 126.821,203.200 126.375 C 202.870 126.059,202.354 125.530,202.054 125.200 C 201.615 124.717,201.541 124.710,201.676 125.166 M209.676 133.166 C 209.768 133.477,210.284 134.006,210.822 134.341 C 211.580 134.814,211.665 134.821,211.200 134.375 C 210.870 134.059,210.354 133.530,210.054 133.200 C 209.615 132.717,209.541 132.710,209.676 133.166 M217.676 141.166 C 217.768 141.477,218.284 142.006,218.822 142.341 C 219.580 142.814,219.665 142.821,219.200 142.375 C 218.870 142.059,218.354 141.530,218.054 141.200 C 217.615 140.717,217.541 140.710,217.676 141.166 M85.100 150.700 C 108.695 150.757,147.305 150.757,170.900 150.700 C 194.495 150.643,175.190 150.596,128.000 150.596 C 80.810 150.596,61.505 150.643,85.100 150.700 M19.745 155.517 C 19.365 156.125,19.439 156.245,20.229 156.311 C 20.741 156.353,21.260 156.227,21.381 156.031 C 21.502 155.835,21.238 155.770,20.795 155.886 C 20.174 156.048,20.046 155.947,20.237 155.448 C 20.567 154.587,20.302 154.624,19.745 155.517 M1.107 233.890 C 1.826 233.979,2.906 233.977,3.507 233.886 C 4.108 233.795,3.520 233.722,2.200 233.724 C 0.880 233.726,0.388 233.801,1.107 233.890 M226.400 244.000 C 226.400 244.220,226.805 244.397,227.300 244.394 C 228.028 244.389,228.085 244.314,227.600 244.000 C 226.824 243.499,226.400 243.499,226.400 244.000 M195.400 282.319 C 194.008 283.523,193.223 284.640,194.200 284.026 C 194.885 283.595,196.660 281.575,196.319 281.613 C 196.253 281.621,195.840 281.938,195.400 282.319 M196.069 284.116 C 195.743 284.510,195.849 284.649,196.515 284.699 C 197.134 284.745,197.232 284.667,196.850 284.431 C 196.397 284.151,196.398 284.062,196.855 283.880 C 197.155 283.761,197.197 283.649,196.949 283.632 C 196.701 283.614,196.305 283.832,196.069 284.116 M187.400 290.319 C 186.008 291.523,185.223 292.640,186.200 292.026 C 186.885 291.595,188.660 289.575,188.319 289.613 C 188.253 289.621,187.840 289.938,187.400 290.319 M155.400 322.319 C 154.008 323.523,153.223 324.640,154.200 324.026 C 154.885 323.595,156.660 321.575,156.319 321.613 C 156.253 321.621,155.840 321.938,155.400 322.319 M231.443 383.433 C 231.067 384.411,231.149 384.508,231.800 383.857 C 232.480 383.177,232.567 382.800,232.043 382.800 C 231.846 382.800,231.576 383.085,231.443 383.433 M164.400 387.104 C 164.400 387.271,164.764 387.635,165.209 387.913 C 165.959 388.381,165.981 388.359,165.513 387.609 C 165.009 386.803,164.400 386.526,164.400 387.104 M167.206 392.271 C 167.218 392.884,167.955 393.778,168.226 393.507 C 168.374 393.359,168.204 392.947,167.848 392.590 C 167.491 392.234,167.203 392.091,167.206 392.271 " stroke="none" fill="#60bccc" fill-rule="evenodd"></path><path id="path4" d="M216.124 2.200 C 216.126 3.520,216.201 4.012,216.290 3.293 C 216.379 2.574,216.377 1.494,216.286 0.893 C 216.195 0.292,216.122 0.880,216.124 2.200 M148.126 67.569 C 148.167 68.101,148.470 68.610,148.800 68.699 C 149.196 68.806,149.246 68.749,148.946 68.530 C 148.697 68.349,148.393 67.840,148.272 67.400 C 148.099 66.769,148.068 66.805,148.126 67.569 M146.029 68.691 C 146.275 69.081,146.944 69.749,147.514 70.176 L 148.552 70.952 147.776 69.914 C 146.805 68.615,145.330 67.583,146.029 68.691 M149.606 72.700 C 149.603 73.195,149.780 73.600,150.000 73.600 C 150.501 73.600,150.501 73.176,150.000 72.400 C 149.686 71.915,149.611 71.972,149.606 72.700 M201.676 125.166 C 201.768 125.477,202.284 126.006,202.822 126.341 C 203.580 126.814,203.665 126.821,203.200 126.375 C 202.870 126.059,202.354 125.530,202.054 125.200 C 201.615 124.717,201.541 124.710,201.676 125.166 M209.676 133.166 C 209.768 133.477,210.284 134.006,210.822 134.341 C 211.580 134.814,211.665 134.821,211.200 134.375 C 210.870 134.059,210.354 133.530,210.054 133.200 C 209.615 132.717,209.541 132.710,209.676 133.166 M217.676 141.166 C 217.768 141.477,218.284 142.006,218.822 142.341 C 219.580 142.814,219.665 142.821,219.200 142.375 C 218.870 142.059,218.354 141.530,218.054 141.200 C 217.615 140.717,217.541 140.710,217.676 141.166 M85.100 150.700 C 108.695 150.757,147.305 150.757,170.900 150.700 C 194.495 150.643,175.190 150.596,128.000 150.596 C 80.810 150.596,61.505 150.643,85.100 150.700 M19.745 155.517 C 19.365 156.125,19.439 156.245,20.229 156.311 C 20.741 156.353,21.260 156.227,21.381 156.031 C 21.502 155.835,21.238 155.770,20.795 155.886 C 20.174 156.048,20.046 155.947,20.237 155.448 C 20.567 154.587,20.302 154.624,19.745 155.517 M1.107 233.890 C 1.826 233.979,2.906 233.977,3.507 233.886 C 4.108 233.795,3.520 233.722,2.200 233.724 C 0.880 233.726,0.388 233.801,1.107 233.890 M226.400 244.000 C 226.400 244.220,226.805 244.397,227.300 244.394 C 228.028 244.389,228.085 244.314,227.600 244.000 C 226.824 243.499,226.400 243.499,226.400 244.000 M195.400 282.319 C 194.008 283.523,193.223 284.640,194.200 284.026 C 194.885 283.595,196.660 281.575,196.319 281.613 C 196.253 281.621,195.840 281.938,195.400 282.319 M196.069 284.116 C 195.743 284.510,195.849 284.649,196.515 284.699 C 197.134 284.745,197.232 284.667,196.850 284.431 C 196.397 284.151,196.398 284.062,196.855 283.880 C 197.155 283.761,197.197 283.649,196.949 283.632 C 196.701 283.614,196.305 283.832,196.069 284.116 M187.400 290.319 C 186.008 291.523,185.223 292.640,186.200 292.026 C 186.885 291.595,188.660 289.575,188.319 289.613 C 188.253 289.621,187.840 289.938,187.400 290.319 M155.400 322.319 C 154.008 323.523,153.223 324.640,154.200 324.026 C 154.885 323.595,156.660 321.575,156.319 321.613 C 156.253 321.621,155.840 321.938,155.400 322.319 M231.443 383.433 C 231.067 384.411,231.149 384.508,231.800 383.857 C 232.480 383.177,232.567 382.800,232.043 382.800 C 231.846 382.800,231.576 383.085,231.443 383.433 M164.400 387.104 C 164.400 387.271,164.764 387.635,165.209 387.913 C 165.959 388.381,165.981 388.359,165.513 387.609 C 165.009 386.803,164.400 386.526,164.400 387.104 M167.206 392.271 C 167.218 392.884,167.955 393.778,168.226 393.507 C 168.374 393.359,168.204 392.947,167.848 392.590 C 167.491 392.234,167.203 392.091,167.206 392.271 " stroke="none" fill="#60bccc" fill-rule="evenodd"></path></g></svg>